<svg xmlns="http://www.w3.org/2000/svg" id="Layer_1" data-name="Layer 1" viewBox="182.43 161.31 715.15 217.39"><defs><style>.cls-1{fill:#004862;}.cls-2{fill:#006c9a;}.cls-3{fill:#237b9f;}</style></defs><path class="cls-1" d="M259.12,276.88v78.61a105.1,105.1,0,0,1-37.78-31A102.88,102.88,0,0,1,205,292.51h21.22l-31.94-21.32v.06l-11.85-7.9A122,122,0,0,0,269.08,378.7a122,122,0,0,0,86.63-115.48l-18.93,12.64h0l-24.95,16.65h21.32a103.09,103.09,0,0,1-16.33,31.94,105.18,105.18,0,0,1-37.78,31V248.66a25.84,25.84,0,1,0-19.92,0v28.22Zm10-60.86a8.79,8.79,0,1,1-8.79,8.79A8.8,8.8,0,0,1,269.08,216Z"/><path class="cls-2" d="M354.1,184.34a168.39,168.39,0,0,0-170,0l-1.62.93h0V245l17.43,12.5V196.75a149.85,149.85,0,0,1,138.42,0v60.77L355.71,245V185.27h0Z"/><path class="cls-2" d="M379.2,234.81c0-20.84,13.24-31,31.27-31s31.35,10.17,31.35,31-13.33,30.93-31.35,30.93S379.2,255.57,379.2,234.81Zm31.27,17.86c9.82,0,15.46-5.64,15.46-17.86S420.29,217,410.47,217,395,222.6,395,234.81,400.64,252.67,410.47,252.67Z"/><path class="cls-2" d="M480.08,265.74c-17.94,0-31.27-10.08-31.27-30.93s13.33-31,31.27-31c14.43,0,27.25,7.77,29,23.58H492.63c-.94-6.49-5-10.17-13.07-10.17-9.91,0-14.69,5.64-14.69,17.6s4.78,17.6,14.69,17.6c8,0,12.05-3.33,13.07-9.31h16.49C507.33,258.05,494.51,265.74,480.08,265.74Z"/><path class="cls-2" d="M564.12,217.81H532.86v12.81h27.42v10.94H532.86v12h31.6v12.22H518.25V205.93h45.87Z"/><path class="cls-2" d="M618.78,265.74l-3.5-10H588.62l-3.5,10h-15.8l22.9-59.81h19.47l22.9,59.81Zm-7.69-22L602,218.92l-9.23,24.86Z"/><path class="cls-2" d="M682.84,241.3V205.93H697.2v59.81H683.27l-27.51-35.37v35.37H641.41V205.93h13.92Z"/><path class="cls-1" d="M753.39,265.74l-3.5-10H723.23l-3.5,10h-15.8l22.89-59.81H746.3l22.89,59.81Zm-7.69-22-9.06-24.86-9.22,24.86Z"/><path class="cls-1" d="M830.86,224.73c0,8.8-5,14.18-10.94,16.32l11.45,24.69H815.31L805,242.93H790.62v22.81H776V205.93h33.83C821,205.93,830.86,210.46,830.86,224.73Zm-23.92,6.49c4.44,0,7.52-2.05,7.52-6.75s-3.08-6.83-7.52-6.83H790.62v13.58Z"/><path class="cls-1" d="M855.36,235.15l25.11-29.22h16.32l-24.94,29.82,25.71,30H880.73L855.36,237.8v27.94H840.75V205.93h14.61Z"/><path class="cls-3" d="M391.32,304.59H379.2v-3.36h27.95v3.36H395V335.7h-3.71Z"/><path class="cls-3" d="M410.06,323.88a12,12,0,0,1,12.13-12.23c6.41,0,11,4.76,11,11.42a15.64,15.64,0,0,1-.25,2.16H413.67c.55,4.66,4,7.66,8.87,7.66a8.8,8.8,0,0,0,7-3.1l2.26,2.3a12.49,12.49,0,0,1-21.75-8.21Zm3.61-1.66h16.08c-.35-4.46-3.16-7.31-7.66-7.31A8.07,8.07,0,0,0,413.67,322.22Z"/><path class="cls-3" d="M443,323.88a12,12,0,0,1,12.27-12.23,11.84,11.84,0,0,1,8.87,3.81l-2.3,2.35a8.61,8.61,0,0,0-6.57-2.8c-5,0-8.61,3.76-8.61,8.87s3.6,8.91,8.61,8.91a8.71,8.71,0,0,0,6.62-2.8l2.35,2.35a12,12,0,0,1-9,3.86A12.11,12.11,0,0,1,443,323.88Z"/><path class="cls-3" d="M475.19,300.23h3.51v15.38a9.31,9.31,0,0,1,7.92-4c5.41,0,9.27,4,9.27,9.62V335.7h-3.51V321.87c0-4.11-2.71-7-6.71-7a6.7,6.7,0,0,0-7,6.91V335.7h-3.51Z"/><path class="cls-3" d="M508.46,312.15H512v3.46a9.3,9.3,0,0,1,7.92-4c5.46,0,9.26,4.41,9.26,9.62V335.7h-3.5V321.87c0-4.11-2.71-7-6.72-7a6.69,6.69,0,0,0-7,6.91V335.7h-3.51Z"/><path class="cls-3" d="M541.08,304.59a2.43,2.43,0,1,1,4.86,0,2.43,2.43,0,1,1-4.86,0Zm.65,7.56h3.56V335.7h-3.56Z"/><path class="cls-3" d="M556.86,323.88a12,12,0,0,1,12.28-12.23,11.83,11.83,0,0,1,8.86,3.81l-2.3,2.35a8.58,8.58,0,0,0-6.56-2.8c-5,0-8.62,3.76-8.62,8.87s3.61,8.91,8.62,8.91a8.69,8.69,0,0,0,6.61-2.8l2.35,2.35a12,12,0,0,1-9,3.86A12.12,12.12,0,0,1,556.86,323.88Z"/><path class="cls-3" d="M587.07,324c0-7,5.06-12.33,11.68-12.33a9.79,9.79,0,0,1,8.51,4.41v-3.91h3.51V335.7h-3.51v-3.91a9.62,9.62,0,0,1-8.46,4.41C592.13,336.2,587.07,330.89,587.07,324Zm20.39-.05c0-5.36-3.3-9-8.16-9s-8.62,3.76-8.62,9,3.61,8.91,8.67,8.91C604.21,332.84,607.46,329.29,607.46,323.93Z"/><path class="cls-3" d="M623.85,300.23h3.51V335.7h-3.51Z"/><path class="cls-3" d="M655.61,330.39l2.56-2.51a10.86,10.86,0,0,0,9.62,4.86c4.41,0,7.41-2.1,7.41-5.66,0-9.67-17.28-5.06-17.28-17.38,0-5.56,4.36-9,10.42-9a12.84,12.84,0,0,1,10.37,4.81l-2.5,2.5a9.84,9.84,0,0,0-8-3.9c-4,0-6.61,2-6.61,5.31,0,9,17.28,4.61,17.28,17.33,0,6-4.36,9.42-11.27,9.42A14.31,14.31,0,0,1,655.61,330.39Z"/><path class="cls-3" d="M689,323.83a12.23,12.23,0,1,1,12.23,12.37A12.07,12.07,0,0,1,689,323.83Zm20.84,0a8.59,8.59,0,1,0-17.18,0c0,5.21,3.61,9,8.57,9S709.87,329,709.87,323.83Z"/><path class="cls-3" d="M725.06,300.23h3.5V335.7h-3.5Z"/><path class="cls-3" d="M741.09,325.83V312.15h3.56v13.53c0,4.31,2.45,7.16,6.36,7.16s6.41-2.8,6.41-7.16V312.15h3.51v13.68c0,6.16-4.06,10.37-9.92,10.37S741.09,331.94,741.09,325.83Z"/><path class="cls-3" d="M777.16,315.31h-6v-3.16h6v-9.92h3.56v9.92h5.91v3.16h-5.91V335.7h-3.56Z"/><path class="cls-3" d="M796.8,304.59a2.43,2.43,0,1,1,4.86,0,2.43,2.43,0,1,1-4.86,0Zm.65,7.56H801V335.7h-3.56Z"/><path class="cls-3" d="M812.58,323.83a12.23,12.23,0,1,1,12.23,12.37A12.07,12.07,0,0,1,812.58,323.83Zm20.85,0a8.6,8.6,0,1,0-17.19,0c0,5.21,3.61,9,8.57,9S833.43,329,833.43,323.83Z"/><path class="cls-3" d="M848.61,312.15h3.51v3.46a9.48,9.48,0,0,1,17.18,5.66V335.7h-3.51V321.87c0-4.11-2.7-7-6.71-7a6.69,6.69,0,0,0-7,6.91V335.7h-3.51Z"/><path class="cls-3" d="M879.77,331.94l2.26-2.3a8.84,8.84,0,0,0,7.16,3.35c3.11,0,5-1.25,5-3.4,0-6-13-2.76-13-11.32,0-4,3.06-6.62,8.12-6.62,3.56,0,6.51,1.3,8.27,3.76l-2.26,2.25a7.53,7.53,0,0,0-6.16-2.8c-3,0-4.61,1.3-4.61,3.15,0,5.52,13,2.36,13,11.28,0,4.26-3.31,6.91-8.47,6.91A11.85,11.85,0,0,1,879.77,331.94Z"/></svg>